<svg xmlns="http://www.w3.org/2000/svg" viewBox="0 0 512 512" width="64" height="64">
  <path d="M352 256c0 22.2-1.2 43.6-3.3 64H163.3c-2.2-20.4-3.3-41.8-3.3-64s1.2-43.6 3.3-64h185.4c2.2 20.4 3.3 41.8 3.3 64zm28.8-64h123.1c5.3 20.5 8.1 41.9 8.1 64s-2.8 43.5-8.1 64H380.8c2.1-20.6 3.2-42 3.2-64s-1.1-43.4-3.2-64zm112.6-32H376.7c-10-63.9-29.8-117.4-55.3-151.6C378.9 30.2 428 80.9 461.8 144h31.6zm-149.1 0H167.7c6.1-36.4 15.5-68.6 27-94.7 10.5-23.6 22.2-40.7 33.5-51.5C239.4 3.2 248.7 0 256 0s16.6 3.2 27.8 11.8c11.3 10.8 23 27.9 33.5 51.5 11.5 26.1 20.9 58.3 27 94.7zm-209.3 0H18.6C52.4 80.9 101.5 30.2 159 8.4 133.4 42.6 113.6 96.1 103.6 160H18.2h85.4zM8.1 192h123.1c-2.1 20.6-3.2 42-3.2 64s1.1 43.4 3.2 64H8.1C2.8 299.5 0 278.1 0 256s2.8-43.5 8.1-64zm17.5 160h116.6c10 63.9 29.8 117.4 55.3 151.6C143.5 481.8 94.4 431.1 60.6 368H25.6zm134.1 0h176.6c-6.1 36.4-15.5 68.6-27 94.7-10.5 23.6-22.2 40.7-33.5 51.5C264.6 508.8 255.3 512 248 512s-16.6-3.2-27.8-11.8c-11.3-10.8-23-27.9-33.5-51.5-11.5-26.1-20.9-58.3-27-94.7zm209.3 0h116.6c-33.8 63.1-82.9 113.8-140.4 135.6 25.6-34.2 45.4-87.7 55.4-151.6h-31.6z" fill="#3A6B8C"/>
</svg>
